<svg width="12" height="13" viewBox="0 0 12 13" fill="none" xmlns="http://www.w3.org/2000/svg">
<path d="M10.245 11.0072L9.45 11.8022L8.9175 11.2697L9.7125 10.4747L8.2575 9.01971L7.4625 9.81471L6.93 9.28221L7.725 8.48721L6.27 7.03221L5.475 7.82721L4.9425 7.29471L5.7375 6.49971L4.275 5.03721L3.48 5.83221L2.9475 5.29971L3.7425 4.50471L2.2875 3.04971L1.4925 3.84471L0.96 3.31221L1.755 2.51721L0 0.762207V11.2622C0 12.0872 0.675 12.7622 1.5 12.7622H12L10.245 11.0072ZM2.25 10.5122V6.19221L6.57 10.5122H2.25Z" fill="#A8AEE5"/>
</svg>
