<svg width="16" height="16" viewBox="0 0 16 16" fill="none" xmlns="http://www.w3.org/2000/svg">
<path d="M4.25 5.51221C5.07843 5.51221 5.75 4.84063 5.75 4.01221C5.75 3.18378 5.07843 2.51221 4.25 2.51221C3.42157 2.51221 2.75 3.18378 2.75 4.01221C2.75 4.84063 3.42157 5.51221 4.25 5.51221Z" fill="#A8AEE5"/>
<path d="M14 8.51221V2.38471C14 1.21471 13.0475 0.262207 11.8775 0.262207C11.315 0.262207 10.775 0.487207 10.3775 0.884707L9.44 1.82221C9.32 1.78471 9.1925 1.76221 9.0575 1.76221C8.7575 1.76221 8.48 1.85221 8.2475 2.00221L10.3175 4.07221C10.4675 3.83971 10.5575 3.56221 10.5575 3.26221C10.5575 3.12721 10.535 3.00721 10.505 2.87971L11.4425 1.94221C11.555 1.82971 11.7125 1.76221 11.8775 1.76221C12.2225 1.76221 12.5 2.03971 12.5 2.38471V8.51221H7.3625C7.1375 8.35471 6.935 8.17471 6.7475 7.97221L5.6975 6.80971C5.555 6.65221 5.375 6.52471 5.18 6.43471C4.9475 6.32221 4.6925 6.26221 4.43 6.26221C3.5 6.26971 2.75 7.01971 2.75 7.94971V8.51221H0.5V13.0122C0.5 13.8372 1.175 14.5122 2 14.5122C2 14.9247 2.3375 15.2622 2.75 15.2622H13.25C13.6625 15.2622 14 14.9247 14 14.5122C14.825 14.5122 15.5 13.8372 15.5 13.0122V8.51221H14ZM14 13.0122H2V10.0122H14V13.0122Z" fill="#A8AEE5"/>
</svg>
