<svg width="16" height="12" viewBox="0 0 16 12" fill="none" xmlns="http://www.w3.org/2000/svg">
<path d="M15.5 5.76221C15.5 4.93721 14.825 4.26221 14 4.26221V2.01221C14 1.18721 13.325 0.512207 12.5 0.512207H3.5C2.675 0.512207 2 1.18721 2 2.01221V4.26221C1.175 4.26221 0.5 4.93721 0.5 5.76221V9.51221H1.4975L2 11.0122H2.75L3.2525 9.51221H12.755L13.25 11.0122H14L14.5025 9.51221H15.5V5.76221ZM12.5 4.26221H8.75V2.01221H12.5V4.26221ZM3.5 2.01221H7.25V4.26221H3.5V2.01221ZM2 5.76221H14V8.01221H2V5.76221Z" fill="#A8AEE5"/>
</svg>
